<svg width="60" height="60" viewBox="0 0 60 60" fill="none" xmlns="http://www.w3.org/2000/svg">
<circle cx="30" cy="30" r="30" fill="white"/>
<path d="M50.9099 30.0401H50.1226V30.6593H50.9996V30.8453H49.8611V29.1279H50.9547V29.3139H50.1226V29.8566H50.9099V30.0401Z" fill="#323232"/>
<path d="M29.5912 10.7177V9.00004H29.8766L30.5257 9.86889C30.6759 10.0703 30.793 10.2512 30.8892 10.4271L30.8953 10.4244C30.8712 10.1952 30.8651 9.98617 30.8651 9.71893V9.00004H31.1116V10.7177H30.8471L30.2041 9.84606C30.0629 9.65492 29.9276 9.45886 29.8255 9.27264L29.8164 9.27533C29.8315 9.49198 29.8375 9.69834 29.8375 9.98393V10.7177H29.5912Z" fill="#323232"/>
<path d="M29.8021 51.2298C29.9193 51.2912 30.0907 51.3417 30.2709 51.3417C30.5383 51.3417 30.6947 51.2222 30.6947 51.049C30.6947 50.8883 30.5864 50.7965 30.313 50.7074C29.9824 50.6081 29.7782 50.463 29.7782 50.2209C29.7782 49.9532 30.0395 49.7544 30.4332 49.7544C30.6405 49.7544 30.7907 49.7952 30.8808 49.8385L30.8087 50.0194C30.7427 49.9888 30.6074 49.9379 30.4241 49.9379C30.1477 49.9379 30.0426 50.0781 30.0426 50.1954C30.0426 50.3556 30.1657 50.4348 30.4452 50.5266C30.7877 50.6385 30.962 50.7786 30.962 51.0311C30.962 51.2961 30.7307 51.5253 30.2529 51.5253C30.0575 51.5253 29.8442 51.4769 29.7361 51.4156L29.8021 51.2298Z" fill="#323232"/>
<path d="M9.5138 30.8239L9 29.1064H9.27642L9.51681 29.9753C9.57687 30.1894 9.63097 30.4034 9.66704 30.5691H9.67309C9.70611 30.3983 9.76918 30.1945 9.83831 29.9728L10.1088 29.1064H10.3822L10.6285 29.9779C10.6856 30.1817 10.7397 30.3856 10.7698 30.5665H10.7758C10.8179 30.378 10.8749 30.1868 10.938 29.9728L11.2054 29.1064H11.4729L10.899 30.8239H10.6256L10.3701 29.9294C10.307 29.7103 10.265 29.5421 10.2379 29.3689H10.232C10.1959 29.5396 10.1508 29.7077 10.0757 29.9294L9.78726 30.8239H9.5138Z" fill="#323232"/>
<path d="M42.2897 17.4069L42.8968 16.8038L42.9971 16.9043L42.918 17.4379C42.8995 17.5615 42.8767 17.6663 42.8483 17.7619L42.8513 17.7631C42.924 17.6741 42.9957 17.5986 43.0903 17.5047L43.3443 17.2523L43.4309 17.3391L42.8238 17.9421L42.7309 17.8491L42.813 17.3167C42.8311 17.1998 42.8529 17.0834 42.8827 16.982L42.8787 16.9798C42.8074 17.0611 42.7366 17.1357 42.6357 17.2359L42.3763 17.4936L42.2897 17.4069Z" fill="#323232"/>
<path d="M43.6357 18.1882L43.3592 17.911L43.1404 18.1285L43.4485 18.4374L43.3828 18.5027L42.9828 18.1017L43.5899 17.4987L43.9741 17.8837L43.9083 17.9491L43.6159 17.656L43.4241 17.8466L43.7006 18.1238L43.6357 18.1882Z" fill="#323232"/>
<path d="M17.1978 18.4232L16.5934 17.8174L16.6941 17.7174L17.2289 17.7964C17.3527 17.8147 17.4578 17.8375 17.5536 17.8658L17.5548 17.8628C17.4656 17.7903 17.3899 17.7188 17.2957 17.6243L17.0429 17.3709L17.1299 17.2845L17.7342 17.8903L17.6409 17.983L17.1073 17.901C16.9902 17.8831 16.8735 17.8613 16.7721 17.8315L16.7698 17.8355C16.8513 17.9067 16.926 17.9773 17.0265 18.078L17.2847 18.3368L17.1978 18.4232Z" fill="#323232"/>
<path d="M18.0119 17.6145L17.2263 17.1888L17.3239 17.0919L17.7144 17.3142C17.811 17.3686 17.9053 17.4251 17.9763 17.4709L17.9785 17.4687C17.93 17.3969 17.8806 17.3029 17.8269 17.2005L17.6176 16.8001L17.714 16.7043L18.1076 16.9254C18.1994 16.9772 18.2903 17.0302 18.3645 17.0835L18.3667 17.0813C18.3152 17.0001 18.2681 16.9127 18.215 16.8151L18.0046 16.4157L18.0989 16.322L18.5007 17.1289L18.4042 17.2247L17.9994 16.9988C17.9 16.9437 17.826 16.8991 17.7555 16.8474L17.7534 16.8495C17.8007 16.9224 17.844 16.9975 17.8955 17.102L18.1085 17.5186L18.0119 17.6145Z" fill="#323232"/>
<path d="M18.648 42.8462C18.6285 42.7835 18.5863 42.7053 18.523 42.6418C18.429 42.5477 18.3318 42.5347 18.2706 42.5956C18.2139 42.6519 18.2193 42.7222 18.2839 42.8498C18.3649 43.0011 18.3853 43.1241 18.2998 43.209C18.2052 43.303 18.0432 43.2807 17.9049 43.1421C17.832 43.0691 17.7937 43.0019 17.7773 42.9549L17.8666 42.9168C17.879 42.9508 17.9085 43.0163 17.9729 43.0809C18.07 43.1782 18.1564 43.166 18.1979 43.1248C18.2546 43.0685 18.2392 42.9974 18.1735 42.8668C18.0929 42.7068 18.0812 42.5963 18.1704 42.5076C18.2641 42.4146 18.4263 42.4155 18.5942 42.5838C18.6628 42.6525 18.7206 42.7446 18.7369 42.8042L18.648 42.8462Z" fill="#323232"/>
<path d="M18.0951 42.0997L17.6684 42.8837L17.5714 42.7864L17.7941 42.3966C17.8487 42.3003 17.9053 42.2061 17.9512 42.1353L17.9491 42.1331C17.8771 42.1815 17.7829 42.2308 17.6803 42.2843L17.279 42.4933L17.183 42.397L17.4046 42.0042C17.4565 41.9126 17.5095 41.822 17.5629 41.7478L17.5609 41.7457C17.4794 41.7971 17.3918 41.8442 17.294 41.8971L16.8938 42.1071L16.7998 42.0129L17.6085 41.612L17.7046 41.7083L17.4781 42.1122C17.4228 42.2114 17.3782 42.2853 17.3263 42.3556L17.3285 42.3578C17.4015 42.3105 17.4768 42.2673 17.5816 42.2159L17.9991 42.0035L18.0951 42.0997Z" fill="#323232"/>
<path d="M43.2189 41.802C43.1561 41.8214 43.0776 41.8636 43.014 41.9267C42.9197 42.0205 42.9067 42.1175 42.9677 42.1786C43.0242 42.2352 43.0946 42.2297 43.2225 42.1653C43.3741 42.0845 43.4973 42.0641 43.5825 42.1494C43.6766 42.2439 43.6543 42.4056 43.5154 42.5435C43.4422 42.6163 43.3749 42.6545 43.3279 42.6708L43.2896 42.5818C43.3237 42.5693 43.3893 42.5399 43.454 42.4757C43.5516 42.3788 43.5393 42.2925 43.4981 42.2511C43.4416 42.1945 43.3704 42.2098 43.2395 42.2754C43.0791 42.356 42.9684 42.3675 42.8796 42.2786C42.7864 42.1851 42.7872 42.0231 42.9559 41.8557C43.0249 41.7872 43.117 41.7295 43.1768 41.7132L43.2189 41.802Z" fill="#323232"/>
<path d="M42.5023 42.891L42.7801 42.6151L42.5622 42.3967L42.2526 42.7042L42.1871 42.6386L42.5889 42.2395L43.1933 42.8453L42.8073 43.2286L42.7419 43.163L43.0356 42.8712L42.8446 42.6798L42.5669 42.9558L42.5023 42.891Z" fill="#323232"/>
<path d="M30.4035 16.0346C26.6462 16.0346 23.1139 17.4946 20.4571 20.1458C17.8003 22.797 16.3371 26.322 16.3371 30.0713C16.3371 33.8207 17.8003 37.3456 20.4571 39.9968C23.1139 42.648 26.6462 44.108 30.4035 44.108C34.1608 44.108 37.6932 42.648 40.3501 39.9968C43.0068 37.3456 44.47 33.8207 44.47 30.0713C44.47 26.322 43.0068 22.797 40.3501 20.1458C37.6932 17.4946 34.1608 16.0346 30.4035 16.0346ZM30.4035 44.5988C26.5149 44.5988 22.8591 43.0876 20.1094 40.3438C17.3597 37.5999 15.8455 33.9517 15.8455 30.0713C15.8455 26.1909 17.3597 22.5427 20.1094 19.7988C22.8591 17.055 26.5149 15.5439 30.4035 15.5439C34.2922 15.5439 37.948 17.055 40.6977 19.7988C43.4474 22.5427 44.9617 26.1909 44.9617 30.0713C44.9617 33.9517 43.4474 37.5999 40.6977 40.3438C37.948 43.0876 34.2922 44.5988 30.4035 44.5988Z" fill="#323232"/>
<path d="M44.6521 29.5193L49.2801 30.0713L44.6521 30.6234V29.5193Z" fill="#323232"/>
<path d="M16.1547 30.6234L11.5266 30.0713L16.1547 29.5193V30.6234Z" fill="#323232"/>
<path d="M30.9573 44.2904L30.4041 48.9088L29.851 44.2904H30.9573Z" fill="#323232"/>
<path d="M29.851 15.8524L30.4041 11.234L30.9573 15.8524H29.851Z" fill="#323232"/>
<path d="M19.9376 20.4078L18.4281 18.1209L20.72 19.6271L19.9376 20.4078Z" fill="#323232"/>
<path d="M40.8695 39.7354L42.379 42.0223L40.0872 40.5161L40.8695 39.7354Z" fill="#323232"/>
<path d="M40.0872 19.6271L42.379 18.1208L40.8695 20.4078L40.0872 19.6271Z" fill="#323232"/>
<path d="M20.7199 40.5161L18.4281 42.0223L19.9375 39.7354L20.7199 40.5161Z" fill="#323232"/>
<path d="M30.4039 18.6125C24.0723 18.6125 18.9213 23.7527 18.9213 30.0709C18.9213 36.3891 24.0723 41.5294 30.4039 41.5294C36.7356 41.5294 41.8868 36.3891 41.8868 30.0709C41.8868 23.7527 36.7356 18.6125 30.4039 18.6125ZM30.4039 41.75C23.9505 41.75 18.7002 36.5108 18.7002 30.0709C18.7002 23.6311 23.9505 18.3919 30.4039 18.3919C36.8576 18.3919 42.1079 23.6311 42.1079 30.0709C42.1079 33.1906 40.8905 36.1235 38.6799 38.3293C36.4694 40.5352 33.5302 41.75 30.4039 41.75Z" fill="#323232"/>
<path d="M30.403 19.4797C24.5503 19.4797 19.7887 24.2312 19.7887 30.0715C19.7887 35.9119 24.5503 40.6633 30.403 40.6633C36.2557 40.6633 41.0173 35.9119 41.0173 30.0715C41.0173 24.2312 36.2557 19.4797 30.403 19.4797ZM30.403 41.0989C24.3096 41.0989 19.3523 36.152 19.3523 30.0715C19.3523 23.991 24.3096 19.0441 30.403 19.0441C36.4964 19.0441 41.4538 23.991 41.4538 30.0715C41.4538 36.152 36.4964 41.0989 30.403 41.0989Z" fill="#323232"/>
<path d="M30.4035 20.096C24.8913 20.096 20.4068 24.5711 20.4068 30.0717C20.4068 35.5723 24.8913 40.0473 30.4035 40.0473C35.9158 40.0473 40.4003 35.5723 40.4003 30.0717C40.4003 24.5711 35.9158 20.096 30.4035 20.096ZM30.4035 40.2209C24.7954 40.2209 20.2328 35.668 20.2328 30.0717C20.2328 24.4753 24.7954 19.9224 30.4035 19.9224C36.0117 19.9224 40.5743 24.4753 40.5743 30.0717C40.5743 35.668 36.0117 40.2209 30.4035 40.2209Z" fill="#323232"/>
<path d="M30.4041 22.0932C25.9956 22.0932 22.409 25.6722 22.409 30.0714C22.409 34.4707 25.9956 38.0497 30.4041 38.0497C34.8127 38.0497 38.3993 34.4707 38.3993 30.0714C38.3993 25.6722 34.8127 22.0932 30.4041 22.0932ZM30.4041 38.1886C25.919 38.1886 22.2699 34.5473 22.2699 30.0714C22.2699 25.5956 25.919 21.9543 30.4041 21.9543C34.8894 21.9543 38.5384 25.5956 38.5384 30.0714C38.5384 34.5473 34.8894 38.1886 30.4041 38.1886Z" fill="#323232"/>
<path d="M37.5961 23.0167L37.473 22.8939L38.0025 22.3656L38.1255 22.4884L37.5961 23.0167Z" fill="#323232"/>
<path d="M22.806 37.7766L22.6829 37.6538L23.2123 37.1254L23.3354 37.2483L22.806 37.7766Z" fill="#323232"/>
<path d="M38.0025 37.7766L37.473 37.2483L37.5961 37.1254L38.1255 37.6538L38.0025 37.7766Z" fill="#323232"/>
<path d="M23.2123 23.0167L22.6829 22.4884L22.806 22.3656L23.3354 22.8939L23.2123 23.0167Z" fill="#323232"/>
<path d="M30.5394 31.1335C30.1277 31.1335 29.7938 30.803 29.7888 30.3933C29.7938 29.9837 30.1277 29.6531 30.5394 29.6531C30.9511 29.6531 31.285 29.9837 31.2902 30.3933C31.285 30.803 30.9511 31.1335 30.5394 31.1335ZM32.096 30.31C32.096 30.1887 32.0816 30.0708 32.0552 29.9575L30.5394 17.4017V17.4018L29.0236 29.9574C28.9972 30.0707 28.9828 30.1886 28.9828 30.31C28.9828 30.3379 28.9836 30.3657 28.9851 30.3933C28.9836 30.4209 28.9828 30.4487 28.9828 30.4766C28.9828 30.5979 28.9971 30.7158 29.0236 30.8291L30.5394 43.3849V43.3848L32.0552 30.8293C32.0816 30.7159 32.096 30.5979 32.096 30.4766C32.096 30.4487 32.0952 30.4209 32.0937 30.3933C32.0952 30.3657 32.096 30.3379 32.096 30.31Z" fill="#323232"/>
<path d="M29.4477 30.4395C29.4477 30.0286 29.7789 29.6955 30.1894 29.6903C30.5999 29.6955 30.9312 30.0286 30.9312 30.4395C30.9312 30.8503 30.5999 31.1836 30.1894 31.1886C29.7789 31.1836 29.4477 30.8503 29.4477 30.4395ZM30.2729 31.9928C30.3945 31.9928 30.5126 31.9784 30.6262 31.9521L43.2084 30.4395H43.2083L30.6263 28.9268C30.5127 28.9005 30.3945 28.8861 30.2729 28.8861C30.2449 28.8861 30.2171 28.887 30.1894 28.8885C30.1618 28.887 30.134 28.8861 30.106 28.8861C29.9844 28.8861 29.8663 28.9005 29.7527 28.9268L17.1703 30.4395H17.1705L29.7525 31.9521C29.8662 31.9784 29.9844 31.9928 30.106 31.9928C30.134 31.9928 30.1618 31.9919 30.1894 31.9905C30.2171 31.9919 30.2449 31.9928 30.2729 31.9928Z" fill="#323232"/>
<path d="M30.3408 30.9657C29.926 30.9657 29.5897 30.6302 29.5897 30.2162H17.3125L29.8946 31.7288C30.0081 31.7551 30.1264 31.7695 30.248 31.7695C31.1077 31.7695 31.8047 31.074 31.8047 30.2162H31.092C31.092 30.6302 30.7557 30.9657 30.3408 30.9657Z" fill="#323232"/>
<path d="M30.2482 28.6623C30.1266 28.6623 30.0084 28.6766 29.8949 28.7029L17.3125 30.2156H17.3126H29.5898C29.5898 29.8016 29.9261 29.4661 30.341 29.4661C30.7559 29.4661 31.0922 29.8016 31.0922 30.2156H31.8048C31.8048 29.3577 31.1078 28.6623 30.2482 28.6623Z" fill="#323232"/>
<path d="M30.3126 29.4661C30.7275 29.4661 31.0638 29.8016 31.0638 30.2156H43.341L30.7589 28.703C30.6453 28.6767 30.5271 28.6623 30.4055 28.6623C29.5458 28.6623 28.8489 29.3577 28.8489 30.2156H29.5614C29.5614 29.8016 29.8978 29.4661 30.3126 29.4661Z" fill="#323232"/>
<path d="M30.4055 31.7695C30.5271 31.7695 30.6452 31.7551 30.7588 31.7288L43.3411 30.2162H43.341H31.0638C31.0638 30.6302 30.7275 30.9657 30.3126 30.9657C29.8978 30.9657 29.5614 30.6302 29.5614 30.2162H28.8489C28.8489 31.0741 29.5458 31.7695 30.4055 31.7695Z" fill="#323232"/>
<path d="M31.0669 30.2418C31.0669 30.6557 30.7307 30.9912 30.3158 30.9912V43.2424L31.8316 30.6871C31.858 30.5737 31.8724 30.4557 31.8724 30.3343C31.8724 29.4764 31.1755 28.781 30.3158 28.781V29.4921C30.7307 29.4921 31.0669 29.8277 31.0669 30.2418Z" fill="#6FB9EC"/>
<path d="M28.7585 30.3341C28.7585 30.4555 28.7729 30.5733 28.7993 30.6866L30.3151 43.2424L30.3152 43.2422V30.991C29.9003 30.991 29.564 30.6555 29.564 30.2415C29.564 29.8275 29.9003 29.4918 30.3152 29.4918V28.7808H30.3151C29.4555 28.7808 28.7585 29.4762 28.7585 30.3341Z" fill="#98CEEC"/>
<path d="M29.564 30.2715C29.564 29.8575 29.9003 29.5219 30.3152 29.5219V17.2707L28.7994 29.8262C28.7729 29.9396 28.7585 30.0575 28.7585 30.1788C28.7585 31.0368 29.4555 31.7322 30.3152 31.7322V31.0211C29.9003 31.0211 29.564 30.6855 29.564 30.2715Z" fill="#CF1A5D"/>
<path d="M31.8724 30.1788C31.8724 30.0575 31.858 29.9396 31.8316 29.8263L30.3158 17.2705V17.2707V29.5219C30.7307 29.5219 31.0669 29.8575 31.0669 30.2715C31.0669 30.6855 30.7307 31.0211 30.3158 31.0211V31.7322C31.1755 31.7322 31.8724 31.0368 31.8724 30.1788Z" fill="#B01750"/>
<path d="M31.186 30.2379C31.186 30.7183 30.7955 31.1079 30.3141 31.1079C29.8325 31.1079 29.4421 30.7183 29.4421 30.2379C29.4421 29.7574 29.8325 29.3679 30.3141 29.3679C30.7955 29.3679 31.186 29.7574 31.186 30.2379Z" fill="#323232"/>
<path d="M31.1382 30.2378C31.1382 30.6913 30.7699 31.0588 30.3155 31.0588C29.8611 31.0588 29.4928 30.6913 29.4928 30.2378C29.4928 29.7845 29.8611 29.4168 30.3155 29.4168C30.7699 29.4168 31.1382 29.7845 31.1382 30.2378Z" fill="#919395"/>
<path d="M30.7809 30.2381C30.7809 30.4944 30.5728 30.7021 30.3159 30.7021C30.0591 30.7021 29.851 30.4944 29.851 30.2381C29.851 29.9819 30.0591 29.7741 30.3159 29.7741C30.5728 29.7741 30.7809 29.9819 30.7809 30.2381Z" fill="#323232"/>
<path d="M30.7192 30.2382C30.7192 30.4609 30.5382 30.6414 30.3152 30.6414C30.092 30.6414 29.9111 30.4609 29.9111 30.2382C29.9111 30.0154 30.092 29.835 30.3152 29.835C30.5382 29.835 30.7192 30.0154 30.7192 30.2382Z" fill="#A5A6A9"/>
<path d="M30.655 30.238C30.655 30.4252 30.5028 30.577 30.3152 30.577C30.1275 30.577 29.9753 30.4252 29.9753 30.238C29.9753 30.0507 30.1275 29.8989 30.3152 29.8989C30.5028 29.8989 30.655 30.0507 30.655 30.238Z" fill="#3F3F3F"/>
<path d="M30.554 30.2383C30.554 30.37 30.4471 30.4768 30.3153 30.4768C30.1834 30.4768 30.0765 30.37 30.0765 30.2383C30.0765 30.1066 30.1834 29.9998 30.3153 29.9998C30.4471 29.9998 30.554 30.1066 30.554 30.2383Z" fill="#323232"/>
</svg>
