<svg width="17" height="25" viewBox="0 0 17 25" fill="none" xmlns="http://www.w3.org/2000/svg">
<g clip-path="url(#clip0_223_3954)">
<path d="M4.16838 24.9998C6.46838 24.9998 8.33504 23.1332 8.33504 20.8332V16.6665H4.16838C1.86838 16.6665 0.00170898 18.5332 0.00170898 20.8332C0.00170898 23.1332 1.86838 24.9998 4.16838 24.9998Z" fill="#0ACF83"/>
<path d="M0.00170898 12.5002C0.00170898 10.2002 1.86838 8.3335 4.16838 8.3335H8.33504V16.6668H4.16838C1.86838 16.6668 0.00170898 14.8002 0.00170898 12.5002Z" fill="#A259FF"/>
<path d="M0.00170898 4.16667C0.00170898 1.86667 1.86838 0 4.16838 0H8.33504V8.33333H4.16838C1.86838 8.33333 0.00170898 6.46667 0.00170898 4.16667Z" fill="#F24E1E"/>
<path d="M8.33496 0H12.5016C14.8016 0 16.6683 1.86667 16.6683 4.16667C16.6683 6.46667 14.8016 8.33333 12.5016 8.33333H8.33496V0Z" fill="#FF7262"/>
<path d="M16.6683 12.5002C16.6683 14.8002 14.8016 16.6668 12.5016 16.6668C10.2016 16.6668 8.33496 14.8002 8.33496 12.5002C8.33496 10.2002 10.2016 8.3335 12.5016 8.3335C14.8016 8.3335 16.6683 10.2002 16.6683 12.5002Z" fill="#1ABCFE"/>
</g>
<defs>
<clipPath id="clip0_223_3954">
<rect width="16.67" height="25" fill="white"/>
</clipPath>
</defs>
</svg>
